<?xml version="1.0" encoding="UTF-8"?>
<svg id="_图层_2" data-name="图层 2" xmlns="http://www.w3.org/2000/svg" viewBox="0 0 178.53 23.54">
  <defs>
    <style>
      .cls-1 {
        fill: #fff;
      }
    </style>
  </defs>
  <g id="_图层_1-2" data-name="图层 1">
    <g>
      <path class="cls-1" d="M0,4.25c0-.78,.19-1.5,.57-2.14,.38-.64,.89-1.15,1.54-1.54,.64-.38,1.36-.57,2.14-.57h15.01c.78,0,1.5,.19,2.16,.57,.65,.38,1.17,.89,1.55,1.54,.38,.64,.57,1.36,.57,2.14V23.54h-3.56V15.3H3.53v8.24H0V4.25Zm19.98,7.52V4.35c0-.22-.08-.41-.23-.57-.15-.16-.34-.25-.56-.25H4.35c-.22,0-.41,.08-.57,.25s-.25,.35-.25,.57v7.42H19.98Z"/>
      <path class="cls-1" d="M25.63,23.54V.03h19.26c.78,0,1.5,.2,2.16,.59,.65,.39,1.17,.91,1.55,1.55,.38,.64,.57,1.35,.57,2.11v6.6c0,.78-.19,1.5-.57,2.14-.38,.64-.9,1.16-1.55,1.54-.65,.38-1.37,.57-2.16,.57l-15.73,.03v8.37h-3.53Zm4.35-11.97h14.84c.22,0,.4-.08,.56-.23,.15-.15,.23-.34,.23-.56V4.38c0-.22-.08-.41-.23-.57-.15-.16-.34-.25-.56-.25h-14.84c-.22,0-.41,.08-.57,.25-.16,.16-.25,.35-.25,.57v6.41c0,.22,.08,.4,.25,.56,.16,.15,.35,.23,.57,.23Zm14.94,11.97l-7.36-8.79h4.61l6.87,8.14v.65h-4.12Z"/>
      <path class="cls-1" d="M63.13,23.54L49.5,0h4.12l11.28,19.55L76.11,0h4.12l-13.6,23.54h-3.5Z"/>
      <path class="cls-1" d="M80.49,4.25c0-.78,.19-1.5,.57-2.14,.38-.64,.89-1.15,1.54-1.54,.64-.38,1.36-.57,2.14-.57h15.01c.78,0,1.5,.19,2.16,.57,.65,.38,1.17,.89,1.55,1.54,.38,.64,.57,1.36,.57,2.14V23.54h-3.56V15.3h-16.44v8.24h-3.53V4.25Zm19.98,7.52V4.35c0-.22-.08-.41-.23-.57-.15-.16-.34-.25-.56-.25h-14.84c-.22,0-.41,.08-.57,.25s-.25,.35-.25,.57v7.42h16.44Z"/>
      <path class="cls-1" d="M114.95,23.54V3.53h-10V0h23.54V3.53h-10V23.54h-3.53Z"/>
      <path class="cls-1" d="M129.36,4.25c0-.78,.19-1.5,.57-2.14,.38-.64,.89-1.15,1.54-1.54,.64-.38,1.36-.57,2.14-.57h15.01c.78,0,1.5,.19,2.16,.57,.65,.38,1.17,.89,1.55,1.54,.38,.64,.57,1.36,.57,2.14V23.54h-3.56V15.3h-16.44v8.24h-3.53V4.25Zm19.98,7.52V4.35c0-.22-.08-.41-.23-.57-.15-.16-.34-.25-.56-.25h-14.84c-.22,0-.41,.08-.57,.25s-.25,.35-.25,.57v7.42h16.44Z"/>
      <path class="cls-1" d="M154.99,23.54V.03h19.26c.78,0,1.5,.2,2.16,.59,.65,.39,1.17,.91,1.55,1.55,.38,.64,.57,1.35,.57,2.11v6.6c0,.78-.19,1.5-.57,2.14-.38,.64-.9,1.16-1.55,1.54-.65,.38-1.37,.57-2.16,.57l-15.73,.03v8.37h-3.53Zm4.35-11.97h14.84c.22,0,.4-.08,.56-.23,.15-.15,.23-.34,.23-.56V4.38c0-.22-.08-.41-.23-.57-.15-.16-.34-.25-.56-.25h-14.84c-.22,0-.41,.08-.57,.25-.16,.16-.25,.35-.25,.57v6.41c0,.22,.08,.4,.25,.56,.16,.15,.35,.23,.57,.23Zm14.94,11.97l-7.36-8.79h4.61l6.87,8.14v.65h-4.12Z"/>
    </g>
  </g>
</svg>